<?xml version="1.0" encoding="UTF-8"?>
<!DOCTYPE svg PUBLIC "-//W3C//DTD SVG 1.1//EN" "http://www.w3.org/Graphics/SVG/1.1/DTD/svg11.dtd">
<!-- Creator: CorelDRAW 2019 (64-Bit) -->
<svg xmlns="http://www.w3.org/2000/svg" xml:space="preserve" width="29.8867mm" height="32mm" version="1.1" style="shape-rendering:geometricPrecision; text-rendering:geometricPrecision; image-rendering:optimizeQuality; fill-rule:evenodd; clip-rule:evenodd"
viewBox="0 0 515.33 551.77"
 xmlns:xlink="http://www.w3.org/1999/xlink"
 xmlns:xodm="http://www.corel.com/coreldraw/odm/2003">
 <defs>
  <style type="text/css">
   <![CDATA[
    .fil0 {fill:#0D1137}
    .fil1 {fill:#E52165}
   ]]>
  </style>
 </defs>
 <g id="Слой_x0020_1">
  <metadata id="CorelCorpID_0Corel-Layer"/>
  <path class="fil0" d="M494.07 251.53c-0.52,-9.17 -2.45,-18.23 -5.71,-26.85 -3.08,-8.5 -6.86,-16.71 -11.32,-24.55 -4.64,-7.61 -9.46,-15 -14.69,-22.09 -10.28,-14.22 -21.56,-27.63 -32.7,-40.77l-16.81 -19.9c-5.57,-6.91 -11.73,-12.96 -17.59,-19.38 -11.8,-12.62 -23.53,-25.4 -35.74,-37.87 -12.21,-12.89 -25.35,-24.84 -39.3,-35.8 -3.45,-2.93 -7.38,-5.42 -11.17,-8.02l-6.01 -3.68 -3.01 -1.78 -3.27 -1.6c-2.19,-0.97 -4.27,-2.11 -6.53,-3.04l-6.9 -2.53c-2.41,-0.78 -4.83,-1.41 -7.31,-1.93 -2.41,-0.59 -4.9,-1 -7.38,-1.19 -2.49,-0.34 -4.97,-0.52 -7.46,-0.56l-7.31 0c-2.52,0 -5.16,0.41 -7.72,0.78l-7.35 1.63c-9.5,2.6 -18.63,6.42 -27.09,11.4 -15.51,9.51 -30.02,20.53 -43.35,32.82 -13.17,11.85 -25.61,24.1 -37.85,36.35l-9.32 9.47 -4.71 4.79 -4.41 4.83 -17.52 19.23c-11.61,12.7 -23.42,25.4 -34.96,38.65 -11.88,13.29 -22.97,27.26 -33.29,41.85 -5.35,7.61 -10.13,15.63 -14.44,23.91 -1.04,2.15 -2.01,4.34 -3.04,6.57 -1.04,2.23 -1.97,4.53 -2.71,6.87l-2.45 6.91c-0.63,2.53 -1.19,4.98 -1.78,7.46 0,1.23 -0.6,2.49 -0.78,3.71l-0.41 3.75c-0.37,2.45 -0.59,4.94 -0.67,7.43l0 7.54c0,2.56 0,5.24 0.48,7.8 0,1.3 0,2.6 0.41,3.86l0.74 3.79c0.56,2.49 0.89,5.12 1.67,7.46l2.27 6.91c0.7,2.41 1.78,4.53 2.74,6.87 7.64,16.9 17.56,32.68 29.39,46.9 11.17,13.85 22.97,27.03 34.48,39.84l17.78 19.05 8.94 9.69c1.49,1.56 2.93,3.23 4.53,4.83l4.75 4.57c24.9,24.06 49.14,48.35 75.89,71.59 13.62,11.88 28.5,22.32 44.35,31.08 8.39,4.46 17.41,7.76 26.68,9.84 9.69,2.12 19.67,2.3 29.43,0.56l-0.86 0c5.49,-0.56 10.95,-1.67 16.25,-3.23 5.09,-1.67 10.1,-3.71 14.81,-6.16 9.17,-4.68 17.85,-10.21 25.94,-16.56 15.51,-12.29 30.28,-25.51 44.2,-39.58 13.84,-13.81 27.61,-28.04 41.38,-41.96l41.38 -41.4c0.7,-0.63 0.74,-1.67 0.15,-2.34 -0.63,-0.7 -1.67,-0.82 -2.34,-0.15 -15.4,12.14 -30.36,24.84 -45.05,37.8l-43.64 39.14c-14.25,13 -29.24,25.07 -45.05,36.17 -7.57,5.31 -15.62,9.88 -24.05,13.78 -4.01,1.86 -8.16,3.38 -12.43,4.57 -4.08,1.08 -8.31,1.75 -12.55,2.01l-1.23 0c-15.21,1.41 -30.43,-2.3 -43.31,-10.55 -14.14,-8.54 -27.31,-18.53 -39.34,-29.82 -12.47,-11.33 -24.46,-23.47 -36.48,-35.76l-36.18 -36.99 -4.34 -4.49c-1.49,-1.52 -2.86,-3.08 -4.3,-4.68l-8.13 -9.47 -17.11 -19.31c-11.32,-12.92 -22.41,-25.81 -32.55,-39.06 -10.13,-12.4 -18.59,-26.14 -25.05,-40.77 -0.82,-1.71 -1.49,-3.42 -2.11,-5.2l-1.6 -5.24c-0.56,-1.71 -0.7,-3.45 -1.11,-5.16l-0.48 -2.56 0 -2.63c0,-0.22 0,-0.6 -0.04,-1l0 0c-0.08,-1.15 -0.22,-2.86 0.04,-4.08l0.37 -5.46c0.11,-1.78 0.26,-3.6 0.52,-5.38l0 -2.79c0,-0.85 0.45,-1.71 0.63,-2.52l1.26 -5.16 1.85 -5.2c0.6,-1.75 1.34,-3.45 2.19,-5.09 0.78,-1.75 1.52,-3.45 2.41,-5.2 3.71,-7.02 7.94,-13.77 12.51,-20.27 9.68,-13.66 20.08,-26.81 31.17,-39.4 11.17,-12.85 22.6,-25.66 34.48,-38.5 5.79,-6.5 11.5,-13 17.11,-19.38l4.12 -4.83 4.41 -4.57 8.5 -8.61c11.91,-12.44 23.79,-24.73 35.92,-36.43 11.58,-11.59 24.27,-22.06 37.85,-31.19 6.35,-4.09 13.21,-7.35 20.34,-9.73l5.12 -1.41 5.16 -0.74 5.45 0c1.85,-0.07 3.68,-0.07 5.53,0 1.82,0.04 3.6,0.22 5.38,0.56 1.71,0.41 3.52,0.63 5.23,1.12l5.31 1.71c1.78,0.56 3.52,1.45 5.31,2.15l2.63 1.15 2.6 1.41c1.74,0.93 3.56,1.78 5.27,2.82 3.38,2.12 6.9,4.05 10.2,6.87 13.62,9.84 26.57,20.57 38.74,32.16 12.47,11.66 24.76,23.76 36.96,35.98 6.08,6.09 12.28,11.92 18,18.27l17.44 18.34c11.62,12.7 22.9,25.62 33.25,39.06 5.23,6.91 10.06,13.81 14.55,20.72 4.42,7.02 8.24,14.41 11.39,22.06 2.82,7.61 4.53,15.6 5.09,23.69 0.63,8.06 -0.3,16.19 -2.67,23.91 -5.38,15.82 -13.69,30.45 -24.42,43.22 -10.72,13.18 -22.19,25.69 -34.44,37.47l-9.61 9.06 -9.61 8.32c-6.9,5.46 -13.17,10.99 -20,15.93 -13.43,10.32 -27.83,19.31 -42.94,26.92 -7.5,3.68 -15.25,6.76 -23.19,9.25 -7.83,2.41 -15.85,3.94 -24.01,4.68 -8.09,0.6 -16.26,0.37 -24.35,-0.67 -8.02,-1.19 -15.88,-3.23 -23.42,-6.2 -7.68,-2.93 -15.1,-6.53 -22.15,-10.77 -7.16,-4.16 -14.1,-8.76 -20.67,-13.81 -13.25,-10.47 -25.61,-22.02 -37,-34.49 -5.71,-6.02 -11.1,-12.29 -16.11,-18.9 -4.9,-6.61 -9.31,-13.55 -13.25,-20.68 -7.76,-13.89 -12.65,-29.15 -14.51,-44.93 -1.37,-15.52 0.48,-31.04 5.46,-45.75 2.48,-7.54 5.6,-14.82 9.31,-21.83 3.71,-7.2 7.94,-14.11 12.69,-20.68 4.79,-6.65 9.95,-13.07 15.44,-19.2 2.71,-3.01 5.57,-5.98 8.35,-8.99 2.82,-3.08 6.08,-6.05 8.98,-9.1 5.53,-5.94 11.43,-11.58 17.67,-16.82 5.97,-5.01 12.43,-9.51 19.22,-13.41 12.88,-7.61 27.43,-11.92 42.34,-12.62 14.77,-0.3 29.39,3.16 42.49,10.02 13.92,7.24 26.69,16.56 37.85,27.59 2.9,2.71 5.68,5.68 8.5,8.58l8.54 9.32c5.38,5.98 10.43,12.25 15.1,18.83 9.24,12.25 16.25,26.03 20.71,40.73 3.82,13.74 3.82,28.26 0,42 -4.34,14.07 -11.76,26.96 -21.82,37.73l-3.82 4.23 -4.16 4.05c-2.97,2.79 -6.01,5.5 -8.98,8.02l-4.41 3.86c-1.45,1.3 -3.01,2.26 -4.53,3.45l-4.64 3.38c-1.49,1.12 -3.16,1.93 -4.83,2.97 -12.62,7.8 -26.69,12.85 -41.38,14.85 -14.29,1.89 -28.91,0.22 -42.42,-4.9l-5.05 -1.93c-1.63,-0.82 -3.19,-1.67 -4.86,-2.49 -1.67,-0.86 -3.27,-1.6 -4.86,-2.49l-4.53 -3.05c-1.56,-0.97 -3.16,-1.97 -4.64,-3.12l-4.34 -3.45c-2.97,-2.34 -5.79,-4.9 -8.42,-7.65 -10.88,-9.91 -19.26,-22.28 -24.46,-36.13 -9.57,-27.85 -4.19,-58.59 14.25,-81.58 2.15,-3.08 4.45,-5.98 6.9,-8.84l3.93 -4.27c1.34,-1.38 2.71,-2.64 4.08,-3.94 2.63,-2.49 5.42,-4.79 8.35,-6.91 1.41,-1.08 2.86,-2.08 4.41,-2.97 1.41,-1.04 2.93,-1.97 4.53,-2.75l4.71 -2.41c1.56,-0.85 3.23,-1.26 4.9,-1.93l2.41 -0.93 2.49 -0.67c1.63,-0.41 3.3,-0.89 5.01,-1.26 6.83,-1.19 13.8,-1.3 20.71,-0.41 7.05,1.15 13.84,3.23 20.26,6.24 6.64,3.27 12.88,7.32 18.56,12.07 3.04,2.27 5.94,4.75 8.68,7.43 1.37,1.26 2.63,2.71 3.94,4.09 1.3,1.37 2.63,2.82 3.78,4.27 4.68,5.76 8.61,12 11.8,18.64 6.16,12.89 7.76,27.48 4.6,41.4 -1.67,6.98 -4.56,13.59 -8.61,19.53 -0.48,0.74 -0.89,1.49 -1.41,2.23l-1.75 2.19c-1.19,1.45 -2.15,2.97 -3.45,4.34l-3.93 4.09c-1.26,1.37 -2.75,2.49 -4.16,3.79 -5.53,4.86 -11.76,8.87 -18.52,11.88 -6.76,2.82 -13.92,4.61 -21.19,5.24 -14.84,1.23 -29.65,-2.78 -41.86,-11.32l-4.49 -3.3 -4.19 -3.6c-1.37,-1.3 -2.71,-2.64 -3.94,-4.05 -0.67,-0.71 -1.26,-1.38 -1.85,-2.08l-1.63 -2.23c-4.45,-5.94 -7.79,-12.74 -9.76,-19.87 -3.82,-14.78 -1.89,-30.45 5.31,-43.89 3.56,-6.83 8.2,-12.99 13.81,-18.27 17.26,-16.78 43.94,-19.16 63.87,-5.64 14.03,8.28 24.01,22.02 27.57,37.91 1.63,7.98 1.26,16.23 -1.15,24.02 -2.52,7.95 -6.86,15.19 -12.77,21.13 -0.63,0.63 -0.63,1.63 0,2.27 0.34,0.34 0.7,0.48 1.15,0.48 0.44,0 0.89,-0.15 1.19,-0.48 6.83,-5.94 12.1,-13.37 15.44,-21.72 3.42,-8.58 4.56,-17.86 3.34,-27 -0.59,-4.57 -1.71,-9.06 -3.34,-13.37 -0.97,-2.15 -1.71,-4.38 -2.82,-6.35 -1.11,-2.01 -2.15,-4.16 -3.45,-6.02 -4.93,-7.61 -11.17,-14.29 -18.48,-19.75 -7.68,-5.49 -16.44,-9.32 -25.72,-11.18 -9.5,-1.97 -19.3,-1.63 -28.58,0.93 -9.39,2.56 -18.04,7.13 -25.42,13.37 -7.31,6.16 -13.55,13.48 -18.48,21.72 -10.09,16.86 -13.47,36.91 -9.39,56.18 1.89,9.69 5.64,18.9 11.02,27.14l2.08 3.01c0.7,1.04 1.6,1.86 2.34,2.82 1.52,1.93 3.12,3.75 4.83,5.46l5.19 5.12 5.71 4.6c16.03,12 35.74,18.05 55.74,17.12 19.97,-0.74 39.15,-8.02 54.59,-20.68 1.89,-1.6 3.86,-3.05 5.61,-4.79l5.16 -5.09c1.75,-1.67 3.26,-3.71 4.94,-5.61l2.3 -2.82 2.15 -3.08c11.87,-16.82 17.52,-37.24 15.85,-57.78 -0.89,-10.1 -3.34,-20.01 -7.24,-29.41 -3.97,-9.06 -8.98,-17.64 -14.92,-25.51 -1.49,-1.97 -3.16,-3.68 -4.64,-5.53 -1.52,-1.86 -3.16,-3.71 -4.86,-5.35 -3.3,-3.53 -6.76,-6.83 -10.39,-9.95 -7.46,-6.53 -15.7,-12.07 -24.49,-16.56 -9.05,-4.6 -18.81,-7.83 -28.83,-9.65 -10.28,-1.59 -20.75,-1.59 -31.03,0 -2.56,0.41 -5.05,1.08 -7.57,1.64 -1.26,0.37 -2.56,0.56 -3.82,0.97l-3.64 1.26c-2.41,0.89 -4.9,1.56 -6.9,2.67l-6.9 3.31c-2.37,1.11 -4.67,2.34 -6.9,3.75 -2.15,1.26 -4.34,2.63 -6.38,4.12 -4.12,2.9 -8.02,5.98 -11.73,9.32 -1.82,1.71 -3.67,3.23 -5.38,4.98l-4.9 5.16c-3.34,3.49 -6.5,7.17 -9.39,11.06l-2.23 2.9 -2.04 3.01 -4.08 6.16c-1.37,2.04 -2.41,4.27 -3.64,6.46 -1.26,2.23 -2.41,4.31 -3.38,6.91l-2.97 6.91 -1.45 3.49 -1.11 3.56 -2.27 6.87c-0.59,2.41 -1.04,4.9 -1.59,7.39 -1.04,4.98 -1.75,10.03 -2.08,15.04l0 7.69c-0.15,2.53 -0.15,5.05 0,7.65 0.37,5.09 1.08,10.14 2.15,15.11 0.59,2.49 1.04,5.05 1.71,7.46l2.41 7.32 1.26 3.53 1.56 3.49 3.12 6.91c1.19,2.19 2.49,4.35 3.71,6.57 1.26,2.19 2.49,4.42 4.01,6.39 5.6,8.06 11.91,15.56 18.89,22.43 13.84,14.22 30.69,25.25 49.17,32.3 18.93,7.2 39.34,9.54 59.38,6.91 19.59,-2.75 38.41,-9.62 55.18,-20.09 2.08,-1.3 4.2,-2.53 6.2,-3.86l5.86 -4.34c1.89,-1.45 3.94,-2.86 5.75,-4.35l5.31 -4.68c3.56,-3.12 6.9,-6.24 10.21,-9.43l5.01 -5.09c1.67,-1.71 3.26,-3.57 4.82,-5.31 13.36,-14.89 23.12,-32.6 28.65,-51.8 5.42,-19.75 5.31,-40.59 -0.3,-60.26 -5.57,-18.49 -14.48,-35.87 -26.28,-51.21 -5.57,-7.35 -11.54,-14.41 -17.92,-21.09l-9.09 -9.62c-3.3,-3.23 -6.5,-6.87 -9.95,-9.65 -13.66,-13.03 -29.21,-23.91 -46.13,-32.3 -17.82,-8.91 -37.63,-13.15 -57.52,-12.25 -9.98,0.48 -19.85,2.34 -29.32,5.5 -9.2,3.12 -18.07,7.24 -26.42,12.29 -8.05,4.9 -15.7,10.47 -22.9,16.64 -6.87,5.98 -13.43,12.36 -19.52,19.12 -3.08,3.23 -6.05,6.2 -9.09,9.58 -3.04,3.38 -6.05,6.91 -8.94,10.25 -5.86,6.98 -11.28,14.29 -16.37,21.91 -5.12,7.65 -9.76,15.67 -13.8,23.95 -4.08,8.43 -7.46,17.15 -10.13,26.18 -5.31,18.27 -6.72,37.43 -4.12,56.33 2.97,18.57 9.5,36.35 19.22,52.39 9.47,15.48 20.97,29.67 34.07,42.15 12.58,12.55 26.09,24.1 40.41,34.53 14.58,10.58 30.62,19.12 47.61,25.25 8.61,3.04 17.63,5.09 26.68,6.13 9.17,0.97 18.41,0.97 27.57,0 9.02,-1.11 17.92,-3.08 26.57,-5.94 8.46,-2.86 16.7,-6.39 24.68,-10.47 15.59,-8.24 30.39,-17.9 44.24,-28.89 6.87,-5.35 13.77,-10.92 20.26,-16.52l9.91 -8.73 9.39 -9.13c12.51,-12.22 24.31,-25.14 35.29,-38.76 5.46,-6.91 10.5,-14.19 14.99,-21.76 4.6,-7.76 8.35,-16.04 11.1,-24.65 2.75,-8.87 3.86,-18.2 3.3,-27.44z"/>
  <path class="fil1" d="M495.41 177.15c-12.84,-30.34 -30.95,-57.22 -54.33,-80.61 -21.23,-21.28 -45.35,-38.17 -72.33,-50.68l0.08 0.07 6.42 6.65 3.86 4.01 3.9 4.05 3.78 4.05 3.82 4.08 1.93 2.04c14.77,9.47 28.46,20.5 41.12,33.16 22.45,22.43 39.78,48.2 52.14,77.23 0.59,1.56 1.22,3.08 1.85,4.64l1 1.6 2.45 3.97 0.44 0.78 2.63 4.83 0.3 0.52 2.45 4.94 0.26 0.52 2.26 5.01 0.26 0.52 2.11 5.09 0.22 0.52 1.78 4.68 0.15 0.45 1.78 5.23 0.34 0.97 1.49 5.31 0.22 1 1.15 5.38 0.15 1 0.85 5.42 0.11 1.04 0.48 5.46 0.04 1.04 0.15 5.46 0 1.23 -0.26 5.53 -0.07 1.19 -0.67 5.46 -0.18 1.19 -1.04 5.42 -0.26 1.15 -1.45 5.31 -0.18 0.6 -0.04 0.22 -0.18 0.52 -1.78 5.24 -0.15 0.37c-1.59,27.92 -7.83,54.73 -18.67,80.54 -1.49,3.38 -2.97,6.72 -4.56,10.06l2.75 15.37 0.26 1.78c4.08,-7.5 7.8,-15.19 11.17,-23.13 13.29,-31.41 19.93,-64.35 19.93,-98.73 0,-34.42 -6.64,-67.32 -19.93,-98.73l0 0z"/>
  <path class="fil1" d="M132.59 57.59c-18.15,10.73 -34.81,23.73 -50.03,38.95 -20,20.01 -36.18,42.59 -48.47,67.73l3.01 -3.6 3.71 -4.38 3.71 -4.31 6.27 -7.09 3.67 -4.2 3.75 -4.16 3.75 -4.16 3.75 -4.12 34.14 -37.35 4.42 -4.83 0.37 -0.41 14.03 -14.3 4.04 -4.05 3.97 -3.9 3.94 -3.9 1.97 -1.93z"/>
  <path class="fil1" d="M82.57 455.24c-23.34,-23.36 -41.49,-50.28 -54.33,-80.61 -0.11,-0.3 -0.26,-0.63 -0.41,-0.97l2.63 3.19 3.64 4.31 3.67 4.31 3.67 4.23 3.68 4.2 3.71 4.2 3.71 4.12 3.64 4.16 1.67 1.82c9.2,14.22 19.93,27.4 32.1,39.66 10.91,10.84 22.56,20.53 35,29.04l3.08 2.97 4.01 3.86 4.01 3.86 4.01 3.83 4.08 3.86 4.08 3.82 4.08 3.79 4.08 3.75c-27.57,-12.59 -52.18,-29.74 -73.82,-51.39l0 0z"/>
 </g>
</svg>
