<?xml version="1.0" encoding="UTF-8"?>
<!DOCTYPE svg PUBLIC "-//W3C//DTD SVG 1.1//EN" "http://www.w3.org/Graphics/SVG/1.1/DTD/svg11.dtd">
<!-- Creator: CorelDRAW 2019 (64-Bit) -->
<svg xmlns="http://www.w3.org/2000/svg" xml:space="preserve" width="68.3237mm" height="37.4434mm" version="1.1" style="shape-rendering:geometricPrecision; text-rendering:geometricPrecision; image-rendering:optimizeQuality; fill-rule:evenodd; clip-rule:evenodd"
viewBox="0 0 2641.24 1447.48"
 xmlns:xlink="http://www.w3.org/1999/xlink"
 xmlns:xodm="http://www.corel.com/coreldraw/odm/2003">
 <defs>
  <style type="text/css">
   <![CDATA[
    .fil2 {fill:#3B4D61}
    .fil3 {fill:#EF9D10}
    .fil0 {fill:#3B4D61;fill-rule:nonzero}
    .fil1 {fill:#EF9D10;fill-rule:nonzero}
   ]]>
  </style>
 </defs>
 <g id="Слой_x0020_1">
  <metadata id="CorelCorpID_0Corel-Layer"/>
  <path class="fil0" d="M245.51 1420.43c0,7.3 -2.64,13.59 -7.86,18.81 -5.16,5.28 -11.45,7.93 -18.86,7.93 -7.29,0 -13.58,-2.64 -18.87,-7.93 -5.22,-5.22 -7.8,-11.51 -7.8,-18.81l0 -99.1c0,-18.12 -6.73,-33.6 -20.12,-46.56 -13.58,-13.28 -30,-19.88 -49.3,-19.88 -19.18,0 -35.59,6.61 -49.18,19.88 -13.33,12.96 -20.06,28.44 -20.06,46.56l0 34.48 60.68 -60.84c5.22,-5.28 11.51,-7.87 18.86,-7.87 7.36,0 13.65,2.58 18.86,7.87 5.16,5.16 7.8,11.45 7.8,18.88 0,7.42 -2.64,13.72 -7.8,18.81l-104.39 104.39c-5.35,6.73 -12.26,10.13 -20.75,10.13 -7.42,0 -13.71,-2.64 -18.8,-7.93 -5.28,-5.22 -7.92,-11.51 -7.92,-18.81l0 -99.1c0,-32.97 12.14,-61.28 36.35,-84.82 24.08,-23.28 52.89,-34.98 86.34,-34.98 33.58,0 62.38,11.7 86.47,34.98 24.21,23.53 36.35,51.85 36.35,84.82l0 99.1z"/>
  <path class="fil0" d="M436 1347.24l0 72.86c0,7.17 -2.58,13.28 -7.74,18.31 -4.97,5.16 -11.07,7.74 -18.3,7.74 -7.17,0 -13.39,-2.58 -18.49,-7.74 -5.03,-5.03 -7.55,-11.13 -7.55,-18.31l0 -192.66c0,-7.23 2.52,-13.34 7.55,-18.37 5.1,-5.1 11.32,-7.68 18.49,-7.68l140.42 0c20.12,0 37.35,7.11 51.57,21.39 14.34,14.28 21.38,31.52 21.38,51.59 0,20.07 -7.04,37.12 -21.38,51.41 -11.82,11.83 -25.97,18.75 -42.26,20.95l56.03 56.06c4.97,5.03 7.48,11.08 7.48,18.31 0,7.24 -2.51,13.4 -7.48,18.5 -5.03,5.03 -11.13,7.55 -18.37,7.55 -7.17,0 -13.33,-2.52 -18.49,-7.55l-92.32 -92.37 -50.56 0zm0 -52.1l114.39 0c5.66,0 10.69,-2.08 14.78,-6.17 4.09,-3.96 6.16,-8.87 6.16,-14.6 0,-5.73 -2.08,-10.63 -6.16,-14.72 -4.09,-4.09 -9.12,-6.1 -14.78,-6.1l-114.39 0 0 41.59z"/>
  <path class="fil0" d="M987.1 1200.87c7.29,0 13.58,2.64 18.8,7.86 5.28,5.29 7.92,11.58 7.92,18.88 0,7.43 -2.64,13.78 -7.92,19 -5.22,5.16 -11.51,7.67 -18.8,7.67l-69.55 0 0 166.11c0,7.48 -2.64,13.72 -7.86,18.87 -5.28,5.29 -11.64,7.93 -19.05,7.93 -7.23,0 -13.52,-2.64 -18.8,-7.93 -5.28,-5.16 -7.92,-11.39 -7.92,-18.87l0 -166.11 -69.55 0c-7.42,0 -13.71,-2.52 -18.8,-7.67 -5.28,-5.22 -7.86,-11.58 -7.86,-19 0,-7.3 2.58,-13.59 7.86,-18.88 5.09,-5.22 11.38,-7.86 18.8,-7.86l192.75 0z"/>
  <path class="fil1" d="M1555.32 1200.87c34.02,0 63.07,12.08 87.22,36.18 23.96,23.97 35.97,52.98 35.97,87.08 0,23.85 -6.41,45.87 -19.18,65.94l11.26 11.45c5.28,5.22 7.92,11.51 7.92,18.88 0,7.48 -2.64,13.72 -7.92,18.87 -5.28,5.29 -11.57,7.93 -18.8,7.93 -7.42,0 -13.77,-2.64 -19.05,-7.93l-11.32 -11.32c-20.06,12.83 -42.13,19.25 -66.09,19.25 -33.9,0 -62.95,-12.02 -87.03,-36.05 -23.96,-24.1 -35.97,-53.1 -35.97,-87.02 0,-34.1 12.01,-63.11 35.97,-87.08 24.08,-24.1 53.14,-36.18 87.03,-36.18l0 0zm-18.8 142.07c-5.28,-5.22 -7.92,-11.52 -7.92,-18.81 0,-7.43 2.64,-13.84 7.92,-19.07 5.22,-5.1 11.57,-7.67 18.99,-7.67 7.29,0 13.58,2.58 18.8,7.67l45.4 45.43c3.58,-8.43 5.35,-17.24 5.35,-26.36 0,-19.19 -6.79,-35.61 -20.38,-49.2 -13.65,-13.59 -30.06,-20.39 -49.37,-20.39 -19.18,0 -35.59,6.8 -49.18,20.39 -13.58,13.59 -20.38,30.01 -20.38,49.2 0,19.19 6.79,35.55 20.38,49.08 13.58,13.72 29.99,20.51 49.18,20.51 9.24,0 18.11,-1.82 26.54,-5.41l-45.34 -45.36z"/>
  <path class="fil1" d="M1869.5 1327.01c0,18.31 6.66,33.91 20.06,46.94 13.58,13.15 30,19.7 49.3,19.7 19.43,0 35.91,-6.54 49.56,-19.7 13.33,-13.02 20,-28.63 20,-46.94l0 -99.1c0,-7.43 2.64,-13.65 7.92,-18.81 5.1,-5.28 11.38,-7.86 18.8,-7.86 7.42,0 13.71,2.58 18.86,7.86 5.22,5.16 7.86,11.39 7.86,18.81l0 99.1c0,33.16 -12.08,61.54 -36.28,85.19 -24.15,23.28 -53.02,34.92 -86.72,34.92 -33.58,0 -62.38,-11.64 -86.47,-34.92 -24.21,-23.66 -36.28,-52.03 -36.28,-85.19l0 -99.1c0,-7.43 2.58,-13.65 7.8,-18.81 5.16,-5.28 11.45,-7.86 18.86,-7.86 7.42,0 13.71,2.58 18.86,7.86 5.22,5.16 7.86,11.39 7.86,18.81l0 99.1z"/>
  <path class="fil1" d="M2200.13 1227.95c0,-7.3 2.64,-13.59 7.86,-18.81 5.16,-5.29 11.45,-7.93 18.86,-7.93 7.42,0 13.77,2.64 18.99,7.93 5.16,5.22 7.67,11.51 7.67,18.81l0 192.85c0,7.42 -2.52,13.72 -7.67,18.81 -5.22,5.28 -11.57,7.87 -18.99,7.87 -7.42,0 -13.71,-2.58 -18.86,-7.87 -5.22,-5.1 -7.86,-11.39 -7.86,-18.81l0 -192.85z"/>
  <path class="fil1" d="M2614.51 1393.69c7.42,0 13.71,2.64 18.8,7.86 5.28,5.29 7.92,11.58 7.92,18.88 0,7.43 -2.64,13.78 -7.92,19 -5.1,5.16 -11.38,7.67 -18.8,7.67l-192.37 0c-3.9,0 -7.67,-0.75 -11.32,-2.33l-0.51 -0.37 -0.12 0 -0.38 -0.13 -0.19 -0.19 -0.32 -0.19 -0.37 -0.19 -0.32 -0.12 -0.19 -0.25 -0.37 -0.13 -0.13 -0.12 -0.37 -0.19 -0.32 -0.19 -0.19 -0.19 -0.32 -0.12 -0.19 -0.19 -0.31 -0.19 -0.38 -0.31 -0.19 0c-0.07,-0.25 -0.19,-0.44 -0.32,-0.51 -1.64,-1.26 -3.02,-2.7 -4.28,-4.34l-0.19 -0.12 -0.12 -0.38 -0.19 -0.12 -0.38 -0.44 -0.19 -0.13 -0.13 -0.31 -0.19 -0.38 -0.19 -0.12 -0.12 -0.38 -0.19 -0.31 -0.19 -0.26 -0.12 -0.25 -0.19 -0.19 -0.19 -0.5 0 -0.19 -0.37 -0.31 0 -0.19c-1.76,-3.65 -2.71,-7.61 -2.71,-11.83 0,-5.03 1.38,-9.69 4.09,-14.03 0.13,-0.25 0.26,-0.44 0.38,-0.57l0 -0.12c1.01,-1.64 2.2,-3.02 3.58,-4.28l146.65 -146.73 -127.97 0c-7.42,0 -13.71,-2.64 -18.86,-7.93 -5.22,-5.1 -7.86,-11.39 -7.86,-18.81 0,-7.23 2.64,-13.53 7.86,-18.88 5.15,-5.22 11.44,-7.86 18.86,-7.86l192.37 0c4.02,0 7.74,0.82 11.26,2.58l0.56 0.13 0.19 0.19 0.31 0.25 0.38 0.12 0.12 0 0.32 0.13 0.37 0.19 0.19 0.19 0.31 0.12 0.38 0.19 0.19 0.19 0.31 0.19 0.13 0.12 0.37 0.44 0.19 0.13 0.31 0.12 0.38 0.19 0.12 0.19c0.13,0.12 0.26,0.19 0.38,0.31l0.13 0c1.64,1.26 3.02,2.83 4.15,4.47l0.19 0 0.31 0.5 0.19 0.19 0.19 0.31 0.13 0.19 0.19 0.38 0.19 0.12 0.13 0.44 0.19 0.06 0.19 0.38 0.19 0.19 0.06 0.5 0.25 0.13 0.19 0.37 0.19 0.25 0.13 0.44c1.76,3.78 2.76,7.74 2.76,11.83 0,5.16 -1.32,9.88 -3.96,14.22 -0.19,0.12 -0.19,0.25 -0.31,0.56l-0.19 0c-1.01,1.51 -2.2,3.02 -3.58,4.41l-146.46 146.54 127.79 0z"/>
  <path class="fil2" d="M1721.23 426.22c-0.88,-15.54 -4.15,-30.9 -9.68,-45.49 -5.22,-14.41 -11.63,-28.31 -19.18,-41.59 -7.86,-12.9 -16.04,-25.42 -24.9,-37.44 -17.42,-24.1 -36.54,-46.81 -55.4,-69.09l-28.49 -33.72c-9.43,-11.71 -19.87,-21.96 -29.81,-32.85 -20,-21.39 -39.87,-43.03 -60.56,-64.18 -20.69,-21.83 -42.95,-42.09 -66.6,-60.66 -5.85,-4.97 -12.51,-9.19 -18.93,-13.59l-10.19 -6.23 -5.1 -3.02 -5.54 -2.71c-3.71,-1.64 -7.23,-3.58 -11.07,-5.16l-11.69 -4.28c-4.09,-1.32 -8.18,-2.39 -12.39,-3.27 -4.09,-1.01 -8.3,-1.7 -12.51,-2.01 -4.21,-0.57 -8.43,-0.88 -12.64,-0.94l-12.39 0c-4.28,0 -8.74,0.69 -13.08,1.32l-12.45 2.77c-16.1,4.41 -31.57,10.89 -45.91,19.32 -26.29,16.11 -50.88,34.8 -73.45,55.62 -22.32,20.07 -43.39,40.84 -64.14,61.6l-15.79 16.04 -7.99 8.12 -7.48 8.18 -29.69 32.59c-19.68,21.52 -39.68,43.04 -59.24,65.5 -20.13,22.53 -38.93,46.18 -56.41,70.91 -9.06,12.9 -17.17,26.49 -24.46,40.52 -1.76,3.65 -3.4,7.36 -5.16,11.14 -1.76,3.77 -3.33,7.67 -4.59,11.64l-4.15 11.7c-1.07,4.28 -2.01,8.43 -3.02,12.64 0,2.08 -1.01,4.22 -1.32,6.29l-0.69 6.36c-0.63,4.15 -1.01,8.37 -1.13,12.58l0 12.77c0,4.34 0,8.87 0.82,13.21 0,2.2 0,4.41 0.69,6.54l1.26 6.42c0.94,4.22 1.51,8.68 2.83,12.65l3.84 11.7c1.19,4.09 3.02,7.68 4.65,11.64 12.95,28.63 29.75,55.37 49.81,79.47 18.93,23.47 38.93,45.81 58.42,67.51l30.13 32.28 15.15 16.42c2.52,2.64 4.97,5.47 7.67,8.18l8.05 7.74c42.19,40.77 83.26,81.92 128.6,121.31 23.08,20.13 48.3,37.81 75.15,52.66 14.21,7.55 29.5,13.15 45.21,16.67 16.41,3.59 33.33,3.9 49.87,0.94l-1.45 0c9.31,-0.94 18.55,-2.83 27.54,-5.47 8.62,-2.83 17.11,-6.29 25.09,-10.45 15.53,-7.92 30.25,-17.3 43.96,-28.06 26.29,-20.82 51.31,-43.23 74.9,-67.07 23.45,-23.41 46.79,-47.51 70.12,-71.1l70.12 -70.16c1.19,-1.07 1.26,-2.83 0.25,-3.97 -1.07,-1.19 -2.83,-1.38 -3.96,-0.25 -26.1,20.57 -51.44,42.09 -76.35,64.05l-73.95 66.32c-24.15,22.02 -49.56,42.47 -76.35,61.28 -12.83,9 -26.47,16.74 -40.75,23.35 -6.79,3.15 -13.84,5.73 -21.06,7.74 -6.92,1.82 -14.09,2.96 -21.26,3.4l-2.08 0c-25.78,2.39 -51.57,-3.9 -73.39,-17.87 -23.96,-14.47 -46.28,-31.39 -66.66,-50.52 -21.13,-19.19 -41.44,-39.77 -61.82,-60.59l-61.31 -62.67 -7.36 -7.61c-2.52,-2.58 -4.84,-5.22 -7.29,-7.93l-13.77 -16.04 -28.99 -32.72c-19.18,-21.9 -37.98,-43.73 -55.15,-66.19 -17.17,-21.02 -31.51,-44.3 -42.45,-69.09 -1.38,-2.89 -2.52,-5.79 -3.58,-8.81l-2.71 -8.87c-0.94,-2.9 -1.19,-5.85 -1.89,-8.75l-0.82 -4.34 0 -4.46c0,-0.38 0,-1.01 -0.06,-1.7l0 0c-0.13,-1.95 -0.38,-4.84 0.06,-6.92l0.63 -9.25c0.19,-3.02 0.44,-6.1 0.88,-9.12l0 -4.72c0,-1.45 0.76,-2.89 1.07,-4.28l2.14 -8.75 3.14 -8.81c1.01,-2.96 2.27,-5.85 3.71,-8.62 1.32,-2.96 2.58,-5.85 4.09,-8.81 6.29,-11.89 13.46,-23.34 21.2,-34.36 16.41,-23.15 34.02,-45.43 52.82,-66.76 18.93,-21.77 38.3,-43.48 58.42,-65.25 9.81,-11.01 19.5,-22.02 28.99,-32.84l6.98 -8.18 7.48 -7.74 14.4 -14.6c20.18,-21.08 40.31,-41.9 60.87,-61.72 19.62,-19.63 41.13,-37.37 64.14,-52.85 10.75,-6.92 22.39,-12.46 34.46,-16.49l8.68 -2.39 8.74 -1.26 9.24 0c3.14,-0.12 6.23,-0.12 9.37,0 3.08,0.06 6.1,0.38 9.12,0.94 2.89,0.69 5.97,1.07 8.86,1.89l9 2.89c3.02,0.94 5.97,2.45 8.99,3.65l4.46 1.95 4.4 2.39c2.95,1.57 6.03,3.02 8.93,4.78 5.72,3.59 11.69,6.86 17.29,11.64 23.08,16.67 45.03,34.86 65.65,54.49 21.13,19.75 41.95,40.27 62.64,60.97 10.31,10.32 20.81,20.2 30.5,30.96l29.56 31.08c19.68,21.52 38.8,43.41 56.35,66.19 8.86,11.71 17.04,23.41 24.65,35.11 7.48,11.89 13.96,24.42 19.31,37.38 4.78,12.9 7.67,26.43 8.62,40.14 1.07,13.65 -0.5,27.43 -4.53,40.52 -9.12,26.8 -23.21,51.59 -41.38,73.24 -18.17,22.34 -37.61,43.54 -58.36,63.49l-16.29 15.35 -16.29 14.09c-11.69,9.25 -22.32,18.63 -33.9,26.99 -22.77,17.49 -47.16,32.72 -72.76,45.62 -12.7,6.23 -25.85,11.45 -39.3,15.67 -13.27,4.09 -26.86,6.67 -40.69,7.92 -13.71,1.01 -27.55,0.63 -41.26,-1.13 -13.58,-2.01 -26.91,-5.47 -39.68,-10.51 -13.02,-4.97 -25.59,-11.07 -37.54,-18.25 -12.14,-7.05 -23.9,-14.85 -35.03,-23.41 -22.45,-17.74 -43.39,-37.31 -62.7,-58.45 -9.68,-10.19 -18.8,-20.83 -27.29,-32.03 -8.3,-11.2 -15.78,-22.97 -22.45,-35.05 -13.14,-23.53 -21.44,-49.39 -24.59,-76.13 -2.33,-26.3 0.82,-52.6 9.25,-77.52 4.21,-12.77 9.49,-25.1 15.78,-37 6.29,-12.2 13.46,-23.91 21.51,-35.04 8.11,-11.26 16.85,-22.15 26.16,-32.53 4.59,-5.1 9.43,-10.13 14.15,-15.23 4.78,-5.22 10.31,-10.26 15.22,-15.42 9.37,-10.07 19.37,-19.63 29.94,-28.5 10.12,-8.49 21.06,-16.11 32.57,-22.72 21.82,-12.9 46.47,-20.19 71.75,-21.39 25.03,-0.51 49.81,5.35 72,16.99 23.59,12.27 45.22,28.06 64.14,46.75 4.91,4.6 9.62,9.63 14.4,14.54l14.47 15.8c9.12,10.13 17.67,20.76 25.6,31.9 15.66,20.76 27.54,44.1 35.09,69.02 6.48,23.28 6.48,47.88 0,71.16 -7.36,23.85 -19.94,45.68 -36.98,63.93l-6.48 7.17 -7.04 6.86c-5.03,4.72 -10.19,9.31 -15.22,13.59l-7.48 6.54c-2.45,2.2 -5.1,3.83 -7.67,5.85l-7.86 5.73c-2.52,1.89 -5.35,3.27 -8.18,5.03 -21.38,13.21 -45.22,21.77 -70.12,25.17 -24.21,3.21 -48.99,0.38 -71.88,-8.3l-8.55 -3.27c-2.77,-1.38 -5.41,-2.83 -8.24,-4.21 -2.83,-1.45 -5.54,-2.71 -8.24,-4.22l-7.67 -5.16c-2.64,-1.64 -5.35,-3.33 -7.86,-5.28l-7.36 -5.85c-5.03,-3.97 -9.81,-8.31 -14.27,-12.96 -18.43,-16.8 -32.64,-37.75 -41.44,-61.22 -16.22,-47.19 -7.11,-99.29 24.15,-138.24 3.65,-5.22 7.55,-10.13 11.7,-14.98l6.66 -7.23c2.27,-2.33 4.59,-4.47 6.92,-6.67 4.46,-4.21 9.19,-8.11 14.15,-11.7 2.39,-1.82 4.84,-3.53 7.48,-5.03 2.39,-1.76 4.97,-3.34 7.67,-4.66l7.99 -4.09c2.64,-1.45 5.47,-2.14 8.3,-3.27l4.09 -1.57 4.21 -1.13c2.76,-0.69 5.59,-1.51 8.49,-2.14 11.57,-2.01 23.39,-2.2 35.09,-0.69 11.95,1.95 23.46,5.47 34.34,10.57 11.26,5.54 21.82,12.4 31.44,20.45 5.16,3.84 10.06,8.05 14.71,12.58 2.33,2.14 4.46,4.59 6.67,6.92 2.2,2.33 4.46,4.78 6.41,7.23 7.92,9.75 14.59,20.33 20,31.59 10.44,21.83 13.14,46.56 7.8,70.16 -2.83,11.83 -7.74,23.03 -14.59,33.09 -0.82,1.26 -1.51,2.52 -2.39,3.78l-2.96 3.71c-2.01,2.45 -3.65,5.03 -5.85,7.36l-6.66 6.92c-2.14,2.33 -4.65,4.21 -7.04,6.42 -9.37,8.24 -19.94,15.04 -31.38,20.13 -11.45,4.78 -23.59,7.8 -35.91,8.87 -25.15,2.08 -50.25,-4.72 -70.94,-19.19l-7.61 -5.6 -7.11 -6.1c-2.33,-2.2 -4.59,-4.47 -6.67,-6.86 -1.13,-1.2 -2.14,-2.33 -3.14,-3.53l-2.77 -3.77c-7.55,-10.07 -13.21,-21.58 -16.54,-33.66 -6.48,-25.04 -3.21,-51.6 8.99,-74.37 6.04,-11.57 13.9,-22.02 23.4,-30.96 29.24,-28.44 74.45,-32.46 108.23,-9.56 23.77,14.03 40.69,37.31 46.73,64.24 2.76,13.53 2.14,27.5 -1.95,40.71 -4.28,13.46 -11.63,25.73 -21.63,35.8 -1.07,1.07 -1.07,2.77 0,3.84 0.57,0.57 1.19,0.82 1.95,0.82 0.75,0 1.51,-0.25 2.01,-0.82 11.57,-10.07 20.5,-22.65 26.16,-36.81 5.79,-14.54 7.74,-30.27 5.66,-45.74 -1.01,-7.74 -2.89,-15.35 -5.66,-22.65 -1.64,-3.65 -2.89,-7.42 -4.78,-10.76 -1.89,-3.4 -3.65,-7.05 -5.85,-10.19 -8.36,-12.9 -18.93,-24.22 -31.32,-33.47 -13.02,-9.31 -27.86,-15.79 -43.58,-18.94 -16.1,-3.33 -32.7,-2.77 -48.42,1.57 -15.91,4.34 -30.56,12.08 -43.08,22.65 -12.39,10.44 -22.95,22.84 -31.32,36.81 -17.1,28.57 -22.83,62.54 -15.91,95.2 3.2,16.42 9.56,32.03 18.68,45.99l3.52 5.1c1.19,1.76 2.71,3.15 3.96,4.78 2.58,3.27 5.28,6.36 8.18,9.25l8.8 8.68 9.68 7.8c27.17,20.33 60.56,30.58 94.46,29.01 33.83,-1.26 66.34,-13.59 92.5,-35.05 3.21,-2.71 6.54,-5.16 9.5,-8.12l8.74 -8.62c2.96,-2.83 5.53,-6.29 8.37,-9.5l3.9 -4.78 3.65 -5.22c20.12,-28.5 29.68,-63.11 26.85,-97.9 -1.51,-17.11 -5.66,-33.91 -12.26,-49.83 -6.73,-15.35 -15.22,-29.89 -25.28,-43.23 -2.52,-3.33 -5.35,-6.23 -7.86,-9.37 -2.58,-3.15 -5.35,-6.29 -8.24,-9.06 -5.6,-5.98 -11.45,-11.58 -17.61,-16.87 -12.64,-11.07 -26.6,-20.45 -41.51,-28.06 -15.34,-7.8 -31.88,-13.28 -48.86,-16.36 -17.42,-2.7 -35.16,-2.7 -52.57,0 -4.34,0.7 -8.55,1.83 -12.83,2.77 -2.14,0.63 -4.34,0.94 -6.48,1.64l-6.16 2.14c-4.09,1.51 -8.3,2.64 -11.7,4.53l-11.7 5.6c-4.02,1.89 -7.92,3.96 -11.69,6.36 -3.65,2.14 -7.36,4.46 -10.82,6.98 -6.98,4.91 -13.58,10.13 -19.87,15.8 -3.08,2.89 -6.22,5.47 -9.12,8.43l-8.3 8.74c-5.66,5.91 -11.01,12.14 -15.91,18.75l-3.77 4.91 -3.46 5.1 -6.92 10.45c-2.33,3.46 -4.09,7.24 -6.16,10.95 -2.14,3.78 -4.09,7.3 -5.72,11.7l-5.03 11.71 -2.45 5.91 -1.89 6.04 -3.84 11.64c-1.01,4.09 -1.76,8.31 -2.7,12.52 -1.76,8.43 -2.96,16.99 -3.52,25.48l0 13.02c-0.25,4.28 -0.25,8.56 0,12.96 0.63,8.62 1.82,17.18 3.65,25.61 1.01,4.21 1.76,8.55 2.89,12.64l4.09 12.4 2.14 5.98 2.64 5.91 5.28 11.7c2.01,3.72 4.21,7.36 6.29,11.14 2.14,3.71 4.21,7.49 6.79,10.82 9.49,13.65 20.18,26.36 32.01,38 23.45,24.1 52.01,42.78 83.32,54.74 32.07,12.2 66.66,16.17 100.62,11.7 33.2,-4.65 65.09,-16.29 93.51,-34.04 3.52,-2.2 7.11,-4.28 10.5,-6.54l9.94 -7.36c3.21,-2.45 6.67,-4.85 9.75,-7.36l8.99 -7.92c6.04,-5.29 11.7,-10.57 17.3,-15.98l8.49 -8.62c2.83,-2.9 5.53,-6.04 8.17,-9 22.64,-25.23 39.18,-55.24 48.55,-87.77 9.18,-33.47 8.99,-68.77 -0.5,-102.12 -9.43,-31.34 -24.53,-60.78 -44.53,-86.77 -9.43,-12.46 -19.56,-24.42 -30.37,-35.74l-15.41 -16.3c-5.6,-5.47 -11.01,-11.64 -16.85,-16.36 -23.14,-22.09 -49.49,-40.52 -78.17,-54.74 -30.19,-15.1 -63.77,-22.27 -97.48,-20.76 -16.92,0.82 -33.64,3.96 -49.68,9.31 -15.59,5.28 -30.62,12.27 -44.77,20.82 -13.65,8.31 -26.6,17.74 -38.8,28.19 -11.64,10.13 -22.77,20.95 -33.08,32.4 -5.22,5.47 -10.25,10.51 -15.41,16.23 -5.15,5.73 -10.25,11.71 -15.15,17.37 -9.94,11.83 -19.12,24.22 -27.73,37.12 -8.68,12.96 -16.54,26.55 -23.39,40.58 -6.92,14.28 -12.64,29.07 -17.17,44.36 -9,30.95 -11.38,63.42 -6.98,95.45 5.03,31.46 16.1,61.6 32.57,88.78 16.04,26.24 35.53,50.27 57.73,71.42 21.32,21.27 44.21,40.83 68.48,58.52 24.71,17.93 51.88,32.4 80.68,42.79 14.59,5.16 29.87,8.62 45.21,10.38 15.53,1.64 31.19,1.64 46.73,0 15.28,-1.89 30.37,-5.22 45.03,-10.07 14.34,-4.84 28.3,-10.82 41.82,-17.74 26.41,-13.97 51.5,-30.33 74.96,-48.95 11.64,-9.06 23.33,-18.5 34.34,-28l16.79 -14.79 15.91 -15.48c21.19,-20.7 41.19,-42.6 59.8,-65.69 9.25,-11.7 17.8,-24.04 25.41,-36.87 7.8,-13.15 14.15,-27.18 18.8,-41.78 4.65,-15.04 6.54,-30.83 5.6,-46.5z"/>
  <path class="fil3" d="M1723.5 300.19c-21.76,-51.4 -52.45,-96.96 -92.07,-136.6 -35.97,-36.06 -76.84,-64.68 -122.56,-85.89l0.13 0.12 10.88 11.26 6.54 6.79 6.6 6.86 6.41 6.86 6.48 6.92 3.27 3.46c25.03,16.05 48.23,34.73 69.68,56.19 38.05,38 67.42,81.67 88.36,130.87 1.01,2.64 2.07,5.22 3.14,7.87l1.7 2.71 4.15 6.73 0.75 1.32 4.46 8.18 0.5 0.88 4.15 8.37 0.44 0.88 3.83 8.49 0.44 0.88 3.58 8.62 0.38 0.88 3.02 7.93 0.25 0.76 3.02 8.87 0.57 1.64 2.52 9 0.37 1.7 1.95 9.12 0.26 1.7 1.45 9.19 0.19 1.76 0.82 9.25 0.06 1.76 0.25 9.25 0 2.08 -0.44 9.37 -0.12 2.01 -1.13 9.25 -0.31 2.01 -1.76 9.19 -0.44 1.95 -2.45 9 -0.31 1.01 -0.07 0.37 -0.31 0.88 -3.02 8.87 -0.25 0.63c-2.7,47.31 -13.27,92.74 -31.63,136.47 -2.52,5.73 -5.03,11.39 -7.74,17.05l4.65 26.05 0.44 3.02c6.92,-12.71 13.21,-25.73 18.93,-39.2 22.51,-53.23 33.77,-109.04 33.77,-167.3 0,-58.33 -11.25,-114.08 -33.77,-167.31l0 0z"/>
  <path class="fil3" d="M1108.71 97.59c-30.75,18.18 -58.99,40.2 -84.77,66 -33.9,33.91 -61.31,72.17 -82.13,114.76l5.1 -6.1 6.29 -7.43 6.29 -7.3 10.63 -12.02 6.22 -7.11 6.35 -7.05 6.35 -7.05 6.35 -6.98 57.86 -63.3 7.48 -8.18 0.63 -0.69 23.77 -24.23 6.85 -6.86 6.73 -6.61 6.67 -6.61 3.33 -3.27z"/>
  <path class="fil3" d="M1023.95 771.4c-39.55,-39.58 -70.31,-85.19 -92.07,-136.6 -0.19,-0.5 -0.44,-1.07 -0.69,-1.64l4.46 5.41 6.17 7.3 6.22 7.3 6.22 7.17 6.23 7.11 6.29 7.11 6.29 6.98 6.17 7.05 2.83 3.08c15.59,24.1 33.77,46.44 54.4,67.2 18.49,18.37 38.24,34.8 59.3,49.2l5.22 5.03 6.79 6.54 6.79 6.54 6.79 6.48 6.92 6.54 6.92 6.48 6.92 6.42 6.92 6.36c-46.73,-21.33 -88.42,-50.4 -125.08,-87.08l0 0z"/>
 </g>
</svg>
